<svg xmlns="http://www.w3.org/2000/svg" xmlns:xlink="http://www.w3.org/1999/xlink" width="500" zoomAndPan="magnify" viewBox="0 0 375 374.999991" height="500" preserveAspectRatio="xMidYMid meet" version="1.0"><defs><g><g id="id1"/></g><clipPath id="id2"><path d="M 135.660156 131.871094 L 239.160156 131.871094 L 239.160156 232.363281 L 135.660156 232.363281 Z M 135.660156 131.871094 " clip-rule="nonzero"/></clipPath></defs><path stroke-linecap="butt" transform="matrix(0.000000000000000092, 1.508643, -1.5, 0.000000000000000092, 115.328361, 169.428198)" fill="none" stroke-linejoin="miter" d="M 0.000987527 0.000157285 L 29.834291 0.000157285 " stroke="rgb(0%, 0%, 0%)" stroke-width="1" stroke-opacity="1" stroke-miterlimit="4"/><path stroke-linecap="butt" transform="matrix(0.000000000000000092, 1.500782, -1.5, 0.000000000000000092, 261.093885, 169.427084)" fill="none" stroke-linejoin="miter" d="M -0.000868097 0.0000899699 L 29.988715 0.0000899699 " stroke="rgb(0%, 0%, 0%)" stroke-width="1" stroke-opacity="1" stroke-miterlimit="4"/><g fill="rgb(0%, 0%, 0%)" fill-opacity="1"><g transform="translate(103.02111, 270.702491)"><g><path d="M 13.671875 -3.46875 C 14.191406 -3.46875 14.625 -3.304688 14.96875 -2.984375 C 15.3125 -2.660156 15.484375 -2.238281 15.484375 -1.71875 C 15.484375 -1.226562 15.3125 -0.816406 14.96875 -0.484375 C 14.625 -0.160156 14.191406 0 13.671875 0 L 4.03125 0 C 3.519531 0 3.085938 -0.171875 2.734375 -0.515625 C 2.390625 -0.859375 2.21875 -1.289062 2.21875 -1.8125 L 2.21875 -18.953125 C 2.21875 -19.472656 2.394531 -19.90625 2.75 -20.25 C 3.113281 -20.59375 3.570312 -20.765625 4.125 -20.765625 C 4.613281 -20.765625 5.035156 -20.59375 5.390625 -20.25 C 5.753906 -19.90625 5.9375 -19.472656 5.9375 -18.953125 L 5.9375 -3.46875 Z M 13.671875 -3.46875 "/></g></g></g><g fill="rgb(0%, 0%, 0%)" fill-opacity="1"><g transform="translate(123.910964, 270.702491)"><g><path d="M 18.515625 -2.3125 C 18.609375 -2.050781 18.65625 -1.816406 18.65625 -1.609375 C 18.65625 -1.085938 18.488281 -0.664062 18.15625 -0.34375 C 17.820312 -0.0195312 17.4375 0.140625 17 0.140625 C 16.644531 0.140625 16.320312 0.0351562 16.03125 -0.171875 C 15.75 -0.390625 15.53125 -0.6875 15.375 -1.0625 L 13.828125 -4.65625 L 4.984375 -4.65625 L 3.4375 -1.03125 C 3.300781 -0.65625 3.085938 -0.363281 2.796875 -0.15625 C 2.515625 0.0390625 2.207031 0.140625 1.875 0.140625 C 1.351562 0.140625 0.957031 0.00390625 0.6875 -0.265625 C 0.425781 -0.546875 0.296875 -0.921875 0.296875 -1.390625 C 0.296875 -1.566406 0.328125 -1.753906 0.390625 -1.953125 L 7.78125 -19.703125 C 7.9375 -20.097656 8.171875 -20.40625 8.484375 -20.625 C 8.796875 -20.84375 9.148438 -20.929688 9.546875 -20.890625 C 9.910156 -20.890625 10.242188 -20.785156 10.546875 -20.578125 C 10.859375 -20.367188 11.082031 -20.078125 11.21875 -19.703125 Z M 6.4375 -8.078125 L 12.375 -8.078125 L 9.375 -15.015625 Z M 6.4375 -8.078125 "/></g></g></g><g fill="rgb(0%, 0%, 0%)" fill-opacity="1"><g transform="translate(147.08555, 270.702491)"><g><path d="M 15.875 -20.765625 C 16.40625 -20.765625 16.835938 -20.609375 17.171875 -20.296875 C 17.515625 -19.984375 17.6875 -19.566406 17.6875 -19.046875 C 17.6875 -18.535156 17.515625 -18.125 17.171875 -17.8125 C 16.835938 -17.507812 16.40625 -17.359375 15.875 -17.359375 L 11.21875 -17.359375 L 11.21875 -1.8125 C 11.21875 -1.289062 11.03125 -0.859375 10.65625 -0.515625 C 10.28125 -0.171875 9.8125 0 9.25 0 C 8.695312 0 8.242188 -0.171875 7.890625 -0.515625 C 7.535156 -0.859375 7.359375 -1.289062 7.359375 -1.8125 L 7.359375 -17.359375 L 2.703125 -17.359375 C 2.171875 -17.359375 1.734375 -17.515625 1.390625 -17.828125 C 1.054688 -18.148438 0.890625 -18.566406 0.890625 -19.078125 C 0.890625 -19.578125 1.0625 -19.984375 1.40625 -20.296875 C 1.75 -20.609375 2.179688 -20.765625 2.703125 -20.765625 Z M 15.875 -20.765625 "/></g></g></g><g fill="rgb(0%, 0%, 0%)" fill-opacity="1"><g transform="translate(169.8744, 270.702491)"><g><path d="M 13.96875 -3.40625 C 14.488281 -3.40625 14.921875 -3.234375 15.265625 -2.890625 C 15.609375 -2.546875 15.78125 -2.144531 15.78125 -1.6875 C 15.78125 -1.195312 15.609375 -0.789062 15.265625 -0.46875 C 14.921875 -0.15625 14.488281 0 13.96875 0 L 4.03125 0 C 3.519531 0 3.085938 -0.171875 2.734375 -0.515625 C 2.390625 -0.859375 2.21875 -1.289062 2.21875 -1.8125 L 2.21875 -18.953125 C 2.21875 -19.472656 2.390625 -19.90625 2.734375 -20.25 C 3.085938 -20.59375 3.519531 -20.765625 4.03125 -20.765625 L 13.96875 -20.765625 C 14.488281 -20.765625 14.921875 -20.601562 15.265625 -20.28125 C 15.609375 -19.957031 15.78125 -19.535156 15.78125 -19.015625 C 15.78125 -18.523438 15.613281 -18.125 15.28125 -17.8125 C 14.945312 -17.507812 14.507812 -17.359375 13.96875 -17.359375 L 5.9375 -17.359375 L 5.9375 -12.3125 L 12.640625 -12.3125 C 13.148438 -12.3125 13.578125 -12.144531 13.921875 -11.8125 C 14.273438 -11.488281 14.453125 -11.070312 14.453125 -10.5625 C 14.453125 -10.070312 14.28125 -9.671875 13.9375 -9.359375 C 13.601562 -9.054688 13.171875 -8.90625 12.640625 -8.90625 L 5.9375 -8.90625 L 5.9375 -3.40625 Z M 13.96875 -3.40625 "/></g></g></g><g fill="rgb(0%, 0%, 0%)" fill-opacity="1"><g transform="translate(191.060978, 270.702491)"><g/></g></g><g fill="rgb(0%, 0%, 0%)" fill-opacity="1"><g transform="translate(203.583371, 270.702491)"><g><path d="M 14.6875 -11.515625 C 15.738281 -11.097656 16.59375 -10.460938 17.25 -9.609375 C 17.914062 -8.765625 18.25 -7.664062 18.25 -6.3125 C 18.25 -3.96875 17.578125 -2.328125 16.234375 -1.390625 C 14.890625 -0.460938 13.285156 0 11.421875 0 L 4.03125 0 C 3.519531 0 3.085938 -0.171875 2.734375 -0.515625 C 2.390625 -0.859375 2.21875 -1.289062 2.21875 -1.8125 L 2.21875 -18.953125 C 2.21875 -19.472656 2.390625 -19.90625 2.734375 -20.25 C 3.085938 -20.59375 3.519531 -20.765625 4.03125 -20.765625 L 11.515625 -20.765625 C 15.273438 -20.765625 17.15625 -19.003906 17.15625 -15.484375 C 17.15625 -14.597656 16.941406 -13.8125 16.515625 -13.125 C 16.085938 -12.445312 15.476562 -11.910156 14.6875 -11.515625 Z M 13.296875 -14.84375 C 13.296875 -15.644531 13.09375 -16.25 12.6875 -16.65625 C 12.28125 -17.0625 11.710938 -17.265625 10.984375 -17.265625 L 6.078125 -17.265625 L 6.078125 -12.640625 L 11.0625 -12.640625 C 11.65625 -12.640625 12.175781 -12.835938 12.625 -13.234375 C 13.070312 -13.628906 13.296875 -14.164062 13.296875 -14.84375 Z M 11.421875 -3.40625 C 12.347656 -3.40625 13.070312 -3.648438 13.59375 -4.140625 C 14.125 -4.640625 14.390625 -5.363281 14.390625 -6.3125 C 14.390625 -7.488281 14.082031 -8.253906 13.46875 -8.609375 C 12.851562 -8.960938 12.101562 -9.140625 11.21875 -9.140625 L 6.078125 -9.140625 L 6.078125 -3.40625 Z M 11.421875 -3.40625 "/></g></g></g><g fill="rgb(0%, 0%, 0%)" fill-opacity="1"><g transform="translate(227.2327, 270.702491)"><g><path d="M 21.328125 -10.390625 C 21.328125 -8.429688 20.890625 -6.632812 20.015625 -5 C 19.148438 -3.363281 17.953125 -2.070312 16.421875 -1.125 C 14.890625 -0.175781 13.164062 0.296875 11.25 0.296875 C 9.332031 0.296875 7.601562 -0.175781 6.0625 -1.125 C 4.53125 -2.070312 3.332031 -3.363281 2.46875 -5 C 1.613281 -6.632812 1.1875 -8.429688 1.1875 -10.390625 C 1.1875 -12.347656 1.613281 -14.140625 2.46875 -15.765625 C 3.332031 -17.398438 4.53125 -18.691406 6.0625 -19.640625 C 7.601562 -20.585938 9.332031 -21.0625 11.25 -21.0625 C 13.164062 -21.0625 14.890625 -20.585938 16.421875 -19.640625 C 17.953125 -18.691406 19.148438 -17.398438 20.015625 -15.765625 C 20.890625 -14.140625 21.328125 -12.347656 21.328125 -10.390625 Z M 17.484375 -10.390625 C 17.484375 -11.710938 17.210938 -12.910156 16.671875 -13.984375 C 16.140625 -15.066406 15.398438 -15.921875 14.453125 -16.546875 C 13.503906 -17.179688 12.4375 -17.5 11.25 -17.5 C 10.039062 -17.5 8.960938 -17.1875 8.015625 -16.5625 C 7.078125 -15.945312 6.347656 -15.09375 5.828125 -14 C 5.304688 -12.914062 5.046875 -11.710938 5.046875 -10.390625 C 5.046875 -9.054688 5.304688 -7.847656 5.828125 -6.765625 C 6.347656 -5.679688 7.078125 -4.828125 8.015625 -4.203125 C 8.960938 -3.578125 10.039062 -3.265625 11.25 -3.265625 C 12.4375 -3.265625 13.503906 -3.578125 14.453125 -4.203125 C 15.398438 -4.835938 16.140625 -5.691406 16.671875 -6.765625 C 17.210938 -7.847656 17.484375 -9.054688 17.484375 -10.390625 Z M 17.484375 -10.390625 "/></g></g></g><g fill="rgb(0%, 0%, 0%)" fill-opacity="1"><g transform="translate(253.967916, 270.702491)"><g><path d="M 17.71875 -2.734375 C 17.945312 -2.410156 18.0625 -2.039062 18.0625 -1.625 C 18.0625 -1.113281 17.875 -0.691406 17.5 -0.359375 C 17.125 -0.0234375 16.722656 0.140625 16.296875 0.140625 C 15.710938 0.140625 15.226562 -0.113281 14.84375 -0.625 L 9.546875 -7.65625 L 4.421875 -0.6875 C 4.023438 -0.132812 3.53125 0.140625 2.9375 0.140625 C 2.5 0.140625 2.117188 -0.015625 1.796875 -0.328125 C 1.484375 -0.640625 1.328125 -1.003906 1.328125 -1.421875 C 1.328125 -1.859375 1.476562 -2.265625 1.78125 -2.640625 L 7.5 -10.390625 L 1.78125 -17.984375 C 1.519531 -18.296875 1.390625 -18.648438 1.390625 -19.046875 C 1.390625 -19.546875 1.578125 -19.972656 1.953125 -20.328125 C 2.328125 -20.679688 2.742188 -20.859375 3.203125 -20.859375 C 3.773438 -20.859375 4.257812 -20.601562 4.65625 -20.09375 L 9.875 -13.140625 L 14.984375 -19.9375 C 15.179688 -20.21875 15.40625 -20.429688 15.65625 -20.578125 C 15.914062 -20.722656 16.175781 -20.796875 16.4375 -20.796875 C 16.875 -20.796875 17.257812 -20.625 17.59375 -20.28125 C 17.925781 -19.9375 18.09375 -19.554688 18.09375 -19.140625 C 18.09375 -18.765625 17.96875 -18.40625 17.71875 -18.0625 L 11.921875 -10.4375 Z M 17.71875 -2.734375 "/></g></g></g><path stroke-linecap="butt" transform="matrix(1.502587, 0, 0, 1.5, 99.179638, 277.842375)" fill="none" stroke-linejoin="miter" d="M 0.0000329517 0.00091643 L 117.804711 0.00091643 " stroke="rgb(0%, 0%, 0%)" stroke-width="1" stroke-opacity="1" stroke-miterlimit="4"/><g clip-path="url(#id2)"><path fill="rgb(0%, 0%, 0%)" d="M 226.988281 228.925781 L 187.582031 228.925781 L 182.78125 211.5625 L 231.792969 211.5625 Z M 144.160156 204.636719 L 180.195312 204.636719 L 179.230469 208.125 L 177.125 208.125 C 176.179688 208.125 175.414062 208.894531 175.414062 209.84375 C 175.414062 210.792969 176.179688 211.5625 177.125 211.5625 L 179.230469 211.5625 L 184.035156 228.925781 L 150.878906 228.925781 Z M 187.582031 190.761719 L 226.988281 190.761719 L 231.792969 208.125 L 182.78125 208.125 Z M 152.617188 156.109375 L 201.628906 156.109375 L 196.824219 173.472656 L 157.421875 173.472656 Z M 157.421875 135.308594 L 196.824219 135.308594 L 201.628906 152.671875 L 152.617188 152.671875 Z M 237.449219 211.5625 C 238.394531 211.5625 239.160156 210.792969 239.160156 209.84375 C 239.160156 208.894531 238.394531 208.125 237.449219 208.125 L 235.34375 208.125 L 229.9375 188.582031 C 229.730469 187.839844 229.058594 187.324219 228.289062 187.324219 L 186.285156 187.324219 C 185.515625 187.324219 184.84375 187.839844 184.636719 188.582031 L 181.144531 201.199219 L 144.160156 201.199219 L 150.878906 176.910156 L 204.269531 176.910156 L 205.261719 180.496094 C 205.515625 181.410156 206.460938 181.941406 207.367188 181.6875 C 208.277344 181.433594 208.8125 180.488281 208.558594 179.574219 L 207.21875 174.730469 C 207.011719 173.988281 206.339844 173.472656 205.570312 173.472656 L 200.375 173.472656 L 205.179688 156.109375 L 207.285156 156.109375 C 208.230469 156.109375 208.996094 155.339844 208.996094 154.390625 C 208.996094 153.441406 208.230469 152.671875 207.285156 152.671875 L 205.179688 152.671875 L 199.773438 133.128906 C 199.566406 132.386719 198.894531 131.871094 198.125 131.871094 L 156.121094 131.871094 C 155.351562 131.871094 154.679688 132.386719 154.472656 133.128906 L 149.066406 152.671875 L 146.960938 152.671875 C 146.015625 152.671875 145.25 153.441406 145.25 154.390625 C 145.25 155.339844 146.015625 156.109375 146.960938 156.109375 L 149.066406 156.109375 L 153.871094 173.472656 L 149.582031 173.472656 C 148.8125 173.472656 148.140625 173.988281 147.933594 174.730469 L 140.609375 201.199219 L 137.371094 201.199219 C 136.425781 201.199219 135.660156 201.96875 135.660156 202.917969 C 135.660156 203.867188 136.425781 204.636719 137.371094 204.636719 L 140.609375 204.636719 L 147.332031 228.925781 L 141.0625 228.925781 C 140.117188 228.925781 139.351562 229.695312 139.351562 230.644531 C 139.351562 231.59375 140.117188 232.363281 141.0625 232.363281 L 149.570312 232.363281 C 149.574219 232.363281 149.578125 232.363281 149.578125 232.363281 C 149.582031 232.363281 149.585938 232.363281 149.589844 232.363281 L 236.035156 232.363281 C 236.980469 232.363281 237.746094 231.59375 237.746094 230.644531 C 237.746094 229.695312 236.980469 228.925781 236.035156 228.925781 L 230.539062 228.925781 L 235.34375 211.5625 L 237.449219 211.5625 " fill-opacity="1" fill-rule="nonzero"/></g></svg>